<mxfile host="app.diagrams.net" modified="2023-03-04T09:37:36.638Z" agent="5.0 (X11; Linux x86_64) AppleWebKit/537.36 (KHTML, like Gecko) Chrome/110.0.0.0 Safari/537.36" etag="q0rhPgURQMERhBbOHwHK" version="20.8.13" type="github">
  <diagram name="Page-1" id="YWRZGNwond29QIktEAfO">
    <mxGraphModel dx="574" dy="308" grid="0" gridSize="10" guides="1" tooltips="1" connect="1" arrows="1" fold="1" page="1" pageScale="1" pageWidth="850" pageHeight="1100" math="0" shadow="0">
      <root>
        <mxCell id="0" />
        <mxCell id="1" parent="0" />
        <mxCell id="E1mXMvyRoxzcLxFFRUYI-1" value="" style="rounded=0;whiteSpace=wrap;html=1;fillColor=#27166B;strokeColor=#050505;" vertex="1" parent="1">
          <mxGeometry x="174" y="411.5" width="33" height="11.5" as="geometry" />
        </mxCell>
        <mxCell id="E1mXMvyRoxzcLxFFRUYI-2" value="" style="rounded=0;whiteSpace=wrap;html=1;fillColor=#0D98BA;strokeColor=#050505;" vertex="1" parent="1">
          <mxGeometry x="279" y="411.5" width="33" height="11.5" as="geometry" />
        </mxCell>
        <mxCell id="E1mXMvyRoxzcLxFFRUYI-3" value="" style="rounded=0;whiteSpace=wrap;html=1;fillColor=#74E800;strokeColor=#050505;" vertex="1" parent="1">
          <mxGeometry x="521" y="411.5" width="33" height="11.5" as="geometry" />
        </mxCell>
        <mxCell id="E1mXMvyRoxzcLxFFRUYI-4" value="" style="rounded=0;whiteSpace=wrap;html=1;fillColor=#0FBA9D;strokeColor=#050505;" vertex="1" parent="1">
          <mxGeometry x="392" y="411.5" width="33" height="11.5" as="geometry" />
        </mxCell>
        <mxCell id="E1mXMvyRoxzcLxFFRUYI-5" value="&lt;b&gt;Fullmap&lt;/b&gt;" style="text;html=1;align=center;verticalAlign=middle;resizable=0;points=[];autosize=1;strokeColor=none;fillColor=none;strokeWidth=3;" vertex="1" parent="1">
          <mxGeometry x="203" y="404.25" width="64" height="26" as="geometry" />
        </mxCell>
        <mxCell id="E1mXMvyRoxzcLxFFRUYI-6" value="&lt;b&gt;Custom&lt;/b&gt;" style="text;html=1;align=center;verticalAlign=middle;resizable=0;points=[];autosize=1;strokeColor=none;fillColor=none;" vertex="1" parent="1">
          <mxGeometry x="306" y="404.25" width="63" height="26" as="geometry" />
        </mxCell>
        <mxCell id="E1mXMvyRoxzcLxFFRUYI-9" value="" style="rounded=0;whiteSpace=wrap;html=1;strokeColor=#050505;fillColor=none;shadow=0;glass=1;" vertex="1" parent="1">
          <mxGeometry x="153" y="406.75" width="463" height="21.25" as="geometry" />
        </mxCell>
        <mxCell id="E1mXMvyRoxzcLxFFRUYI-7" value="&lt;b&gt;Kubernetes&lt;/b&gt;" style="text;html=1;align=center;verticalAlign=middle;resizable=0;points=[];autosize=1;strokeColor=none;fillColor=none;" vertex="1" parent="1">
          <mxGeometry x="420" y="404.25" width="84" height="26" as="geometry" />
        </mxCell>
        <mxCell id="E1mXMvyRoxzcLxFFRUYI-8" value="&lt;b&gt;Profile&lt;/b&gt;" style="text;html=1;align=center;verticalAlign=middle;resizable=0;points=[];autosize=1;strokeColor=none;fillColor=none;" vertex="1" parent="1">
          <mxGeometry x="550" y="404.25" width="55" height="26" as="geometry" />
        </mxCell>
      </root>
    </mxGraphModel>
  </diagram>
</mxfile>
